<svg xmlns="http://www.w3.org/2000/svg" width="1120" height="470" viewBox="0 0 1120 470" role="img" aria-labelledby="title desc">
  <title id="title">CapsWriter verification pipeline</title>
  <desc id="desc">Repository verification runs CLI tests, server syntax checks, web console tests and builds, optional live HTTP health checks, then cleanup.</desc>
  <defs>
    <marker id="arrow-verify" markerWidth="10" markerHeight="10" refX="8" refY="3" orient="auto" markerUnits="strokeWidth">
      <path d="M0,0 L0,6 L9,3 z" fill="#1E3A5F"/>
    </marker>
    <style>
      .bg { fill: #f8fafc; }
      .node { fill: #ffffff; stroke: #1e3a5f; stroke-width: 1.8; rx: 8; }
      .node-blue { fill: #eff6ff; stroke: #2563eb; stroke-width: 1.8; rx: 8; }
      .node-green { fill: #ecfdf5; stroke: #059669; stroke-width: 1.8; rx: 8; }
      .node-muted { fill: #f1f5f9; stroke: #64748b; stroke-width: 1.5; rx: 8; }
      .label { fill: #0f172a; font-family: Arial, sans-serif; font-size: 16px; font-weight: 700; }
      .small { fill: #475569; font-family: Arial, sans-serif; font-size: 12px; }
      .edge { fill: none; stroke: #1e3a5f; stroke-width: 2; marker-end: url(#arrow-verify); }
      .edge-soft { fill: none; stroke: #64748b; stroke-width: 1.6; stroke-dasharray: 5 5; marker-end: url(#arrow-verify); }
    </style>
  </defs>
  <rect x="0" y="0" width="1120" height="470" class="bg"/>

  <rect x="40" y="195" width="160" height="72" class="node-blue"/>
  <text x="76" y="224" class="label">Entry point</text>
  <text x="58" y="245" class="small">scripts/verify_all.py</text>

  <rect x="260" y="64" width="190" height="74" class="node"/>
  <text x="304" y="94" class="label">CLI verify</text>
  <text x="282" y="115" class="small">compileall + unittest + clean</text>

  <rect x="260" y="195" width="190" height="74" class="node"/>
  <text x="299" y="225" class="label">Server compile</text>
  <text x="282" y="246" class="small">fork_server + entrypoints</text>

  <rect x="260" y="326" width="190" height="74" class="node"/>
  <text x="304" y="356" class="label">Web verify</text>
  <text x="286" y="377" class="small">npm ci + tests + build</text>

  <rect x="530" y="130" width="205" height="74" class="node-muted"/>
  <text x="572" y="160" class="label">Optional live HTTP</text>
  <text x="555" y="181" class="small">CLI health against real API</text>

  <rect x="530" y="276" width="205" height="74" class="node-green"/>
  <text x="589" y="306" class="label">Cleanup</text>
  <text x="557" y="327" class="small">dist/cache/pycache removed</text>

  <rect x="815" y="130" width="240" height="74" class="node"/>
  <text x="872" y="160" class="label">GitHub Actions</text>
  <text x="844" y="181" class="small">.github/workflows/ci.yml</text>

  <rect x="815" y="276" width="240" height="74" class="node-green"/>
  <text x="866" y="306" class="label">Clean worktree gate</text>
  <text x="842" y="327" class="small">no committed generated artifacts</text>

  <path d="M200 231 L260 101" class="edge"/>
  <path d="M200 231 L260 232" class="edge"/>
  <path d="M200 231 L260 363" class="edge"/>
  <path d="M450 101 C492 101 492 167 530 167" class="edge-soft"/>
  <path d="M450 232 C494 232 492 313 530 313" class="edge"/>
  <path d="M450 363 C498 363 492 313 530 313" class="edge"/>
  <path d="M735 167 L815 167" class="edge-soft"/>
  <path d="M735 313 L815 313" class="edge"/>
</svg>
